<mxfile host="app.diagrams.net" modified="2024-04-01T15:45:12.880Z" agent="Mozilla/5.0 (Macintosh; Intel Mac OS X 10_15_7) AppleWebKit/537.36 (KHTML, like Gecko) Chrome/123.0.0.0 Safari/537.36" etag="PCwcFsTGEhREFo8Q_Ojs" version="24.0.8" type="device">
  <diagram name="Page-1" id="jTEZ93bSHCOOyFPQH3_F">
    <mxGraphModel dx="910" dy="761" grid="1" gridSize="10" guides="1" tooltips="1" connect="1" arrows="1" fold="1" page="1" pageScale="1" pageWidth="827" pageHeight="1169" math="0" shadow="0">
      <root>
        <mxCell id="0" />
        <mxCell id="1" parent="0" />
      </root>
    </mxGraphModel>
  </diagram>
</mxfile>
